<?xml version="1.0" encoding="UTF-8" standalone="no"?>
<svg
   xmlns:dc="http://purl.org/dc/elements/1.1/"
   xmlns:cc="http://creativecommons.org/ns#"
   xmlns:rdf="http://www.w3.org/1999/02/22-rdf-syntax-ns#"
   xmlns:svg="http://www.w3.org/2000/svg"
   xmlns="http://www.w3.org/2000/svg"
   xmlns:sodipodi="http://sodipodi.sourceforge.net/DTD/sodipodi-0.dtd"
   xmlns:inkscape="http://www.inkscape.org/namespaces/inkscape"
   width="1561.0685"
   height="455.41226"
   viewBox="0 0 1561.0685 455.41226"
   fill="none"
   version="1.1"
   id="svg4"
   sodipodi:docname="living-room.svg"
   inkscape:version="1.0.1 (3bc2e813f5, 2020-09-07)">
  <metadata
     id="metadata10">
    <rdf:RDF>
      <cc:Work
         rdf:about="">
        <dc:format>image/svg+xml</dc:format>
        <dc:type
           rdf:resource="http://purl.org/dc/dcmitype/StillImage" />
      </cc:Work>
    </rdf:RDF>
  </metadata>
  <defs
     id="defs8" />
  <sodipodi:namedview
     pagecolor="#ffffff"
     bordercolor="#666666"
     borderopacity="1"
     objecttolerance="10"
     gridtolerance="10"
     guidetolerance="10"
     inkscape:pageopacity="0"
     inkscape:pageshadow="2"
     inkscape:window-width="1920"
     inkscape:window-height="1017"
     id="namedview6"
     showgrid="false"
     inkscape:zoom="0.67832512"
     inkscape:cx="731.50449"
     inkscape:cy="59.289661"
     inkscape:window-x="-8"
     inkscape:window-y="-8"
     inkscape:window-maximized="1"
     inkscape:current-layer="svg4"
     inkscape:document-rotation="0" />
  <path
     d="m 1558.8185,450.92126 h -74.32 v -106.67 h -74.78 v -37.278 h 18.42 v 11.228 c 0,1.348 0.9,2.246 2.24,2.246 1.35,0 2.25,-0.898 2.25,-2.246 v -11.228 h 11.45 l -22.45,-58.612 h -28.07 l -22.46,58.612 h 34.36 v 37.278 h -41.09 v 106.67 h -39.3 -16.393 l -8.0841,-17.517 h 5.8391 c 3.817,0 6.736,-2.919 6.736,-6.737 v -56.141 -4.492 -38.85 c 0,-3.817 -2.919,-6.737 -6.736,-6.737 h -15.719 v -40.197 c 0,-12.576 -10.329,-22.906 -22.904,-22.906 H 1141.6114 V 40.412256 H 1033.3785 844.75845 736.75045 V 307.42226 h 45.134 v 36.829 h -41.093 v 106.67 h -59.729 v -111.386 c 0,-11.677 -8.758,-21.109 -20.21,-22.232 v -33.46 c 0,-18.19 -14.82,-32.787 -32.784,-32.787 h -91.84 c -18.189,0 -32.785,14.821 -32.785,32.787 v 33.46 c -11.227,1.123 -20.209,10.779 -20.209,22.232 v 111.386 h -35.928 l 8.309,-46.71 h 6.511 v -23.804 h -12.799 l 2.695,-22.682 c 0.224,-1.123 -0.674,-2.245 -2.021,-2.47 -1.123,-0.225 -2.246,0.674 -2.47,2.021 l -2.695,23.131 h -4.715 l 5.613,-57.939 c 0.225,-1.123 -0.898,-2.245 -2.021,-2.47 -1.122,-0.225 -2.245,0.898 -2.47,2.021 l -5.613,58.388 h -5.614 l 1.123,-25.826 c 0,-1.347 -0.898,-2.245 -2.246,-2.245 -1.122,0 -2.245,0.898 -2.245,2.245 l -1.123,26.05 h -6.287 l -2.021,-38.176 c 0,-1.348 -1.123,-2.246 -2.4703,-2.021 -1.3473,0 -2.2455,1.122 -2.0209,2.47 l 2.0209,37.952 h -4.9401 l -5.3891,-56.367 c -0.2246,-1.122 -1.1228,-2.245 -2.4701,-2.021 -1.1227,0.225 -2.2455,1.123 -2.0209,2.471 l 5.3892,55.917 h -6.7365 l -4.0419,-26.275 c -0.2245,-1.122 -1.3473,-2.021 -2.47,-1.796 -1.1228,0.224 -2.021,1.347 -1.7964,2.47 l 3.8173,25.601 h -14.1466 v 23.355 h 6.7365 l 8.3083,46.71 h -75.67291 c -1.3473,0 -2.24549,0.898 -2.24549,2.245 0,1.348 0.89819,2.246 2.24549,2.246 h 163.69651 40.194 4.491 108.457 4.491 40.194 213.321 19.311 392.06305 19.306 233.98 c 1.3499,0 2.25,-0.898 2.25,-2.246 0,-1.347 -0.9001,-2.245 -2.25,-2.245 z m -162.34,-198.069 h 22 l 19.09,49.63 h -59.96 z m -1012.04545,146.867 v -14.821 h 73.2034 v 14.821 h -1.348 -70.5081 z m 66.4664,4.492 -7.859,44.015 h -44.0117 l -7.8592,-44.015 z m 85.329,-148.888 h 91.84 c 15.718,0 28.293,12.8 28.293,28.295 v 33.461 c -11.227,1.122 -20.209,10.779 -20.209,22.232 v 11.228 c -1.348,-0.674 -2.919,-1.347 -4.491,-1.347 h -99.251 c -1.572,0 -3.143,0.449 -4.491,1.347 v -11.228 c 0,-11.678 -8.757,-21.11 -20.209,-22.232 v -33.461 c 0,-15.495 12.799,-28.295 28.518,-28.295 z m -8.309,103.076 c 0,-2.47 2.021,-4.491 4.491,-4.491 h 99.475 c 2.47,0 4.491,2.021 4.491,4.491 v 56.142 h -108.457 z m -40.419,92.522 v -111.386 c 0,-9.881 8.084,-17.965 17.964,-17.965 9.881,0 17.964,8.084 17.964,17.965 v 18.864 56.142 4.491 31.889 z m 40.419,0 v -31.889 h 108.457 v 31.889 z m 112.948,0 v -31.889 -4.491 -56.142 -18.864 c 0,-9.881 8.084,-17.965 17.964,-17.965 9.88,0 17.964,8.084 17.964,17.965 v 111.386 z m 668.03305,-24.254 c 0,1.348 -0.898,2.246 -2.246,2.246 H 912.57145 c -1.347,0 -2.245,-0.898 -2.245,-2.246 v -56.141 h 73.203 251.94305 73.203 v 56.141 z m -332.10805,-101.728 c 1.347,0 2.246,0.898 2.246,2.245 v 38.85 h -68.712 v -38.85 c 0,-1.347 0.898,-2.245 2.245,-2.245 z m 332.10805,2.245 v 38.85 h -68.712 v -38.85 c 0,-1.347 0.898,-2.245 2.245,-2.245 h 64.221 c 1.123,0 2.246,1.122 2.246,2.245 z m -22.68,-46.934 v 40.197 h -44.011 c -3.818,0 -6.737,2.92 -6.737,6.737 v 38.85 H 983.52945 v -38.85 c 0,-3.817 -2.919,-6.737 -6.737,-6.737 h -44.011 v -40.197 c 0,-10.106 8.308,-18.415 18.413,-18.415 h 316.38905 c 10.329,-0.224 18.637,8.085 18.637,18.415 z m -167.962,-23.131 h -66.466 V 63.767256 h 66.466 z M 1137.1204,44.903596 V 257.11926 h -14.3709 V 59.275856 h -75.448 V 257.11926 h -13.923 V 44.903596 Z m -108.2319,0 V 257.11926 h -77.69405 c -12.575,0 -22.904,10.33 -22.904,22.906 v 22.681 h -79.041 V 44.903596 Z m -287.87205,0 h 103.742 V 302.93126 h -25.599 l -5.389,-14.372 h 17.29 V 59.275856 h -75.448 V 286.31326 l -6.288,16.618 h -7.859 V 44.903596 Z m 57.035,203.457664 h -3.368 l 24.925,-24.927 c 0.898,-0.898 0.898,-2.245 0,-3.144 -0.898,-0.898 -2.245,-0.898 -3.144,0 l -28.068,28.071 h -18.413 l -10.105,26.274 V 63.542656 h 66.467 V 283.84326 h -14.372 z m -24.924,4.491 h 22.005 l 13.249,34.359 5.838,15.271 h -59.955 z m -27.845,95.891 h 111.377 v 101.504 h -12.126 v -87.806 h -86.9 v 87.806 h -12.126 v -101.504 z m 94.536,101.729 h -77.919 v -83.315 h 77.919 z m 54.34,0.449 h -33.233 v -106.67 h -74.55 v -36.829 h 18.413 v 10.779 c 0,1.348 0.898,2.246 2.245,2.246 1.348,0 2.246,-0.898 2.246,-2.246 v -10.779 h 35.479 83.532 v 13.025 h -15.719 c -3.817,0 -6.736,2.92 -6.736,6.737 v 38.85 4.492 56.141 c 0,3.818 2.919,6.737 6.736,6.737 h 5.838 l -7.859,17.517 z m 21.332,0 7.86,-17.517 h 372.30105 l 7.86,17.517 z m 547.67795,-0.449 h -77.92 v -83.315 h 77.92 z m -94.5399,-101.729 h 111.38 v 101.504 h -12.13 v -87.806 h -86.9001 v 87.806 h -12.1199 v -101.504 z"
     fill="#f0f0f0"
     id="path2" />
  <g
     style="fill:none"
     id="g860"
     transform="translate(579.87315)">
    <circle
       r="18"
       transform="matrix(-1,0,0,1,18,18)"
       fill="#f0f0f0"
       id="circle849"
       cx="0"
       cy="0" />
  </g>
  <g
     style="fill:none"
     id="g873"
     transform="translate(0,259.15307)">
    <circle
       r="15.5"
       transform="matrix(-1,0,0,1,17.5,17.5)"
       stroke="#f0f0f0"
       stroke-width="4"
       id="circle862"
       cx="0"
       cy="0" />
  </g>
  <g
     style="fill:none"
     id="g886"
     transform="translate(1273.4168,43.508595)">
    <path
       d="m 57.9365,138.519 c 31.6614,0 57.4845,-30.99 57.4845,-69.1662 0,-38.1764 -25.8231,-69.166643 -57.4845,-69.166643 -31.6614,0 -57.484474,30.990243 -57.484474,69.166643 0,38.1762 25.823074,69.1662 57.484474,69.1662 z m 0,-134.06607 c 29.1913,0 52.9935,28.96917 52.9935,64.67537 0,35.7057 -23.8022,64.6757 -52.9935,64.6757 C 28.7452,133.804 4.943,105.059 4.943,69.3528 4.943,33.6467 28.7452,4.45293 57.9365,4.45293 Z"
       fill="#f0f0f0"
       id="path875" />
  </g>
  <g
     style="fill:none"
     id="g899"
     transform="translate(1291.836,65.873223)">
    <path
       d="M 25.7898,4.58333 C 26.9126,3.90963 27.3616,2.56223 26.688,1.66396 26.0144,0.765691 24.6671,0.0919888 23.7689,0.76569 13.2151,6.1553 5.13135,16.4854 1.08948,29.2857 c -0.449096,1.1229 0.22458,2.4703 1.57187,2.6948 0.22455,0 0.44907,0 0.67362,0 0.89819,0 1.79639,-0.6737 2.24548,-1.5719 C 8.94868,18.7311 16.3588,9.29924 25.7898,4.58333 Z"
       fill="#f0f0f0"
       id="path888" />
  </g>
  <g
     style="fill:none"
     id="g912"
     transform="translate(1248.7199,203.59416)">
    <path
       d="m 167.693,9.48865 c 0,-5.16504 -4.042,-9.207247 -9.206,-9.207247 H 9.38632 c -5.16462,0 -9.20651,4.042207 -9.20651,9.207247 V 18.9205 H 167.693 Z m -4.491,4.94045 H 4.67079 V 9.48865 c 0,-2.47024 2.02095,-4.71591 4.71553,-4.71591 H 158.487 c 2.47,0 4.715,2.0211 4.715,4.71591 z"
       fill="#f0f0f0"
       id="path901" />
  </g>
  <rect
     style="opacity:1;fill:#f0f0f0;fill-opacity:1;stroke-width:15;stroke-linecap:round;stroke-linejoin:round"
     id="rect842"
     width="4.0541034"
     height="16.861385"
     x="717.8689"
     y="-399.63528"
     ry="2.0270517"
     rx="2.0270517"
     transform="rotate(45)" />
  <rect
     style="opacity:1;fill:#f0f0f0;fill-opacity:1;stroke-width:15;stroke-linecap:round;stroke-linejoin:round"
     id="rect842-3"
     width="4.0541034"
     height="83.569809"
     x="767.26617"
     y="-583.81348"
     ry="2.0270517"
     rx="2.0270517"
     transform="rotate(45)" />
  <rect
     style="opacity:1;fill:#f0f0f0;fill-opacity:1;stroke-width:15;stroke-linecap:round;stroke-linejoin:round"
     id="rect859"
     width="4.0541034"
     height="16.861385"
     x="847.65149"
     y="-693.60071"
     ry="2.0270517"
     rx="2.0270517"
     transform="rotate(45)" />
  <rect
     style="opacity:1;fill:#f0f0f0;fill-opacity:1;stroke-width:15;stroke-linecap:round;stroke-linejoin:round"
     id="rect861"
     width="4.0541034"
     height="34.736294"
     x="863.35315"
     y="-685.53357"
     ry="2.0270517"
     rx="2.0270517"
     transform="rotate(45)" />
  <rect
     style="opacity:1;fill:#f0f0f0;fill-opacity:1;stroke-width:15;stroke-linecap:round;stroke-linejoin:round"
     id="rect863"
     width="4.0541034"
     height="34.736294"
     x="856.31671"
     y="-544.54486"
     ry="2.0270517"
     rx="2.0270517"
     transform="rotate(45)" />
  <rect
     style="opacity:1;fill:#f0f0f0;fill-opacity:1;stroke-width:15;stroke-linecap:round;stroke-linejoin:round"
     id="rect865"
     width="4.0541034"
     height="83.569809"
     x="747.19946"
     y="-561.66187"
     ry="2.0270517"
     rx="2.0270517"
     transform="rotate(45)" />
</svg>
