<?xml version="1.0" encoding="UTF-8" standalone="no"?>
<svg
   xmlns:dc="http://purl.org/dc/elements/1.1/"
   xmlns:cc="http://creativecommons.org/ns#"
   xmlns:rdf="http://www.w3.org/1999/02/22-rdf-syntax-ns#"
   xmlns:svg="http://www.w3.org/2000/svg"
   xmlns="http://www.w3.org/2000/svg"
   xmlns:sodipodi="http://sodipodi.sourceforge.net/DTD/sodipodi-0.dtd"
   xmlns:inkscape="http://www.inkscape.org/namespaces/inkscape"
   width="46.553699"
   height="47"
   viewBox="0 0 46.553699 47"
   fill="none"
   version="1.1"
   id="svg74"
   sodipodi:docname="logo-icon.svg"
   inkscape:version="1.0.1 (3bc2e813f5, 2020-09-07)">
  <metadata
     id="metadata78">
    <rdf:RDF>
      <cc:Work
         rdf:about="">
        <dc:format>image/svg+xml</dc:format>
        <dc:type
           rdf:resource="http://purl.org/dc/dcmitype/StillImage" />
      </cc:Work>
    </rdf:RDF>
  </metadata>
  <sodipodi:namedview
     pagecolor="#ffffff"
     bordercolor="#666666"
     borderopacity="1"
     objecttolerance="10"
     gridtolerance="10"
     guidetolerance="10"
     inkscape:pageopacity="0"
     inkscape:pageshadow="2"
     inkscape:window-width="1920"
     inkscape:window-height="1017"
     id="namedview76"
     showgrid="false"
     inkscape:zoom="1.53"
     inkscape:cx="218.36549"
     inkscape:cy="-75.801493"
     inkscape:window-x="-8"
     inkscape:window-y="-8"
     inkscape:window-maximized="1"
     inkscape:current-layer="svg74" />
  <path
     d="M 7.9558,14.7258 5.96685,14.1123 4.84807,13.8668 4.47514,12.7624 3.9779,10.799 3.48066,12.7624 3.10773,13.8668 1.98895,14.1123 0,14.7258 l 1.98895,0.4909 1.11878,0.3682 0.37293,1.1044 0.49724,1.9634 0.49724,-1.9634 0.37293,-1.1044 1.11878,-0.3682 z"
     fill="#02e7d9"
     id="path28" />
  <path
     d="M 24.8617,1.96345 23.8672,1.71802 23.2457,1.5953 23.1214,0.981723 22.8727,0 22.6241,0.981723 22.3755,1.5953 l -0.4972,0.12272 -0.9945,0.24543 0.9945,0.24543 0.4972,0.12271 0.2486,0.61358 0.2486,0.98172 0.2487,-0.98172 0.1243,-0.61358 0.6215,-0.12271 z"
     fill="#02e7d9"
     id="path30" />
  <path
     fill-rule="evenodd"
     clip-rule="evenodd"
     d="m 5.84238,18.53 c -2.98342,7.4857 -1.3674,16.3212 4.72372,22.3342 8.2045,8.0992 21.6299,8.0992 29.8343,0 8.2044,-8.0992 8.2044,-21.3524 0,-29.4517 -5.9669,-6.13574 -14.9171,-7.73104 -22.5,-4.78587 1.7403,-0.49086 3.605,-0.85901 5.3453,-0.85901 4.7238,0 9.3232,1.71802 12.9282,5.27678 3.6049,3.5587 5.3453,8.0992 5.3453,12.7624 0,4.6632 -1.7404,9.2036 -5.3453,12.7624 -3.605,3.5587 -8.2044,5.2768 -12.9282,5.2768 -4.7238,0 -9.3232,-1.7181 -12.9282,-5.2768 C 6.83686,33.1332 5.09653,28.47 5.09653,23.8068 c 0,-1.718 0.24862,-3.5588 0.74585,-5.2768 z"
     fill="#6b2aee"
     id="path32" />
  <path
     fill-rule="evenodd"
     clip-rule="evenodd"
     d="m 7.45898,30.5561 c 2.61052,5.8904 8.70162,10.0627 15.66302,10.0627 9.4475,0 17.1547,-7.6084 17.1547,-16.9347 0,-9.3264 -7.7072,-16.93477 -17.1547,-16.93477 -6.9614,0 -13.0525,4.17237 -15.66302,10.18537 0.74586,-1.3499 1.61603,-2.4543 2.61052,-3.5587 2.7348,-2.6998 6.3398,-4.29508 10.442,-4.29508 4.1022,0 7.8315,1.59528 10.442,4.29508 2.7348,2.6997 4.3508,6.2584 4.3508,10.3081 0,4.0496 -1.616,7.731 -4.3508,10.308 -2.7348,2.6998 -6.3398,4.2951 -10.442,4.2951 -4.1022,0 -7.8315,-1.5953 -10.442,-4.2951 -0.99449,-0.9817 -1.86466,-2.2088 -2.61052,-3.436 z"
     fill="#02e7d9"
     id="path34" />
  <path
     fill-rule="evenodd"
     clip-rule="evenodd"
     d="m 22.873,39.3916 c 3.3564,-0.4908 6.5884,-2.0861 9.0746,-4.4177 2.9835,-2.9452 4.7238,-6.9948 4.7238,-11.1671 0,-4.1723 -1.616,-8.222 -4.7238,-11.1671 -2.4862,-2.4543 -5.5939,-4.04963 -9.0746,-4.41778 0.1244,0 0.1244,0 0.2487,0 8.8259,0 15.9116,6.99478 15.9116,15.70758 0,4.1723 -1.6161,8.0992 -4.5995,11.0444 -2.9834,2.9452 -6.9613,4.5405 -11.1878,4.5405 -0.2486,-0.1228 -0.2486,-0.1228 -0.373,-0.1228 z"
     fill="url(#paint0_linear)"
     id="path36"
     style="fill:url(#paint0_linear)" />
  <path
     d="m 42.1411,8.83551 c 1.991,0 3.605,-1.5933 3.605,-3.55875 0,-1.96544 -1.614,-3.55874 -3.605,-3.55874 -1.991,0 -3.605,1.5933 -3.605,3.55874 0,1.96545 1.614,3.55875 3.605,3.55875 z"
     fill="#02e7d9"
     id="path38" />
  <path
     d="m 42.1406,2.69977 c 1.4917,0 2.6105,1.10444 2.6105,2.57702"
     stroke="#ffffff"
     stroke-width="0.7"
     stroke-miterlimit="10"
     id="path40" />
  <path
     d="m 6.33973,47 c 3.02078,0 5.46957,-2.4174 5.46957,-5.3995 0,-2.982 -2.44879,-5.3995 -5.46957,-5.3995 -3.02078,0 -5.469613,2.4175 -5.469613,5.3995 0,2.9821 2.448833,5.3995 5.469613,5.3995 z"
     fill="#02e7d9"
     id="path42" />
  <path
     d="M 5.59376,45.282 C 3.4805,44.9138 2.11309,42.8277 2.48602,40.7415"
     stroke="#ffffff"
     stroke-miterlimit="10"
     id="path44" />
  <path
     d="m 41.022,36.2011 -2.3619,-0.7363 -1.3674,-0.3682 -0.3729,-1.3498 -0.7458,-2.3316 -0.6216,2.3316 -0.3729,1.3498 -1.3674,0.3682 -2.3619,0.7363 2.3619,0.6135 1.3674,0.3682 0.3729,1.3499 0.6216,2.3315 0.7458,-2.3315 0.3729,-1.3499 1.3674,-0.3682 z"
     fill="#ffffff"
     id="path46" />
  <path
     d="m 34.6825,24.175 h -4.3508 v 8.9582 l -0.1243,0.1227 c -2.6105,2.577 -5.9669,3.9269 -9.6962,3.9269 -3.6049,0 -6.9613,-1.3499 -9.4475,-3.8042 V 24.0522 H 6.71289 l 4.97241,-4.0496 v -5.2767 h 4.2265 v 1.9634 l 4.7237,-3.8042 6.9614,5.6449 6.5884,5.3995 z"
     fill="#02e7d9"
     id="path48" />
  <path
     d="m 20.0138,25.0339 h -2.6105 v 2.5771 h 2.6105 z"
     fill="#ffffff"
     id="path50" />
  <path
     d="m 23.9914,25.0339 h -2.6105 v 2.5771 h 2.6105 z"
     fill="#ffffff"
     id="path52" />
  <path
     d="m 20.0138,28.8381 h -2.6105 v 2.5771 h 2.6105 z"
     fill="#ffffff"
     id="path54" />
  <path
     d="m 23.9914,28.8381 h -2.6105 v 2.5771 h 2.6105 z"
     fill="#ffffff"
     id="path56" />
  <path
     fill-rule="evenodd"
     clip-rule="evenodd"
     d="m 25.6077,45.4047 c -5.221,0 -10.1934,-1.9635 -13.9227,-5.6449 -0.2486,-0.2455 -0.3729,-0.3682 -0.6215,-0.6136 3.4806,2.6997 7.7072,4.1723 12.1823,4.1723 5.3453,0 10.1934,-2.0861 13.9227,-5.7676 0.7458,-0.7363 1.3674,-1.4726 1.9889,-2.3316 -0.9945,2.9452 -2.6105,5.5222 -4.5994,7.9765 -2.7349,1.4726 -5.8426,2.2089 -8.9503,2.2089 z"
     fill="url(#paint1_linear)"
     id="path58"
     style="fill:url(#paint1_linear)" />
  <path
     d="m 16.5381,18.2442 v -3.5587 h -0.4973 v 3.5587 z"
     fill="#ffffff"
     id="path60" />
  <defs
     id="defs72">
    <linearGradient
       id="paint0_linear"
       x1="24.8102"
       y1="11.534"
       x2="30.414801"
       y2="29.134001"
       gradientUnits="userSpaceOnUse">
      <stop
         stop-color="white"
         id="stop62" />
      <stop
         offset="1"
         stop-color="white"
         stop-opacity="0"
         id="stop64" />
    </linearGradient>
    <linearGradient
       id="paint1_linear"
       x1="3.1416099"
       y1="36.278301"
       x2="29.5191"
       y2="40.178501"
       gradientUnits="userSpaceOnUse">
      <stop
         stop-color="white"
         id="stop67" />
      <stop
         offset="1"
         stop-color="white"
         stop-opacity="0"
         id="stop69" />
    </linearGradient>
  </defs>
</svg>
