<svg width="225" height="47" viewBox="0 0 225 47" fill="none" xmlns="http://www.w3.org/2000/svg">
<path d="M66.0084 18.7755C61.1603 18.7755 57.6797 21.9661 57.6797 27.1201C57.6797 32.2741 61.1603 35.4647 66.0084 35.4647C70.1106 35.4647 72.9697 33.0104 73.7156 29.8198H68.3703C67.9974 30.6788 67.1272 31.4151 65.7598 31.4151C64.1438 31.4151 62.7764 30.4334 62.6521 28.3473H73.9642C73.9642 27.8564 74.0885 27.3655 74.0885 26.8747C74.2128 21.8433 70.8565 18.7755 66.0084 18.7755ZM62.7764 25.5248C63.025 23.6841 64.2681 22.7023 66.0084 22.7023C67.6244 22.7023 69.1162 23.6841 69.1162 25.5248H62.7764Z" fill="#6B2AEE"/>
<path d="M89.3788 24.9113H77.9424V28.9609H89.3788V24.9113Z" fill="#6B2AEE"/>
<path d="M105.166 21.2298C104.172 19.7572 102.307 18.7755 100.069 18.7755C96.0914 18.7755 92.8594 21.9661 92.8594 26.9974C92.8594 32.1515 96.0914 35.3421 100.069 35.3421C102.431 35.3421 104.172 34.2376 105.166 32.765V35.0966H110.138V13.7441H105.166V21.2298ZM101.561 31.047C99.6964 31.047 97.9561 29.5744 97.9561 26.9974C97.9561 24.4204 99.6964 23.0705 101.561 23.0705C103.426 23.0705 105.166 24.5431 105.166 27.1201C105.166 29.6971 103.426 31.047 101.561 31.047Z" fill="#6B2AEE"/>
<path d="M118.716 19.0209H113.743V35.2193H118.716V19.0209Z" fill="#6B2AEE"/>
<path d="M116.23 12.0261C114.489 12.0261 113.246 13.2533 113.246 14.7259C113.246 16.1984 114.489 17.4256 116.23 17.4256C117.97 17.4256 119.213 16.1984 119.213 14.7259C119.213 13.1306 118.094 12.0261 116.23 12.0261Z" fill="#6B2AEE"/>
<path d="M133.633 21.2298C132.763 19.7572 131.022 18.6528 128.536 18.6528C124.558 18.6528 121.326 21.8434 121.326 26.8747C121.326 32.0288 124.558 35.2194 128.536 35.2194C131.022 35.2194 132.638 34.1149 133.633 32.6423V34.9739H138.605V19.0209H133.633V21.2298ZM130.152 31.047C128.287 31.047 126.547 29.5744 126.547 26.9974C126.547 24.4204 128.287 23.0705 130.152 23.0705C132.017 23.0705 133.757 24.5431 133.757 27.1201C133.633 29.6972 132.017 31.047 130.152 31.047Z" fill="#6B2AEE"/>
<path d="M147.306 21.7206V19.0209H142.334V35.2193H147.306V27.7337C147.306 24.9112 148.674 24.1749 151.036 24.1749H152.403V18.8982C150.29 18.7754 148.425 20.0026 147.306 21.7206Z" fill="#6B2AEE"/>
<path d="M159.862 19.0209H154.89V35.2193H159.862V19.0209Z" fill="#6B2AEE"/>
<path d="M157.376 12.0261C155.636 12.0261 154.393 13.2533 154.393 14.7259C154.393 16.1984 155.636 17.4256 157.376 17.4256C159.116 17.4256 160.359 16.1984 160.359 14.7259C160.359 13.1306 159.116 12.0261 157.376 12.0261Z" fill="#6B2AEE"/>
<path d="M167.818 23.6841C167.818 22.9478 168.439 22.4569 169.682 22.4569C171.05 22.4569 171.92 23.1932 172.044 24.2976H176.644C176.271 21.107 174.033 18.7755 169.807 18.7755C165.58 18.7755 163.094 20.9843 163.094 23.8068C163.094 29.6971 172.044 27.8564 172.044 30.4334C172.044 31.1697 171.423 31.7833 170.055 31.7833C168.688 31.7833 167.693 31.047 167.569 29.9426H162.597C162.845 33.0104 165.704 35.4647 170.18 35.4647C174.282 35.4647 176.768 33.3786 176.768 30.5561C176.768 24.4204 167.818 26.2611 167.818 23.6841Z" fill="#6B2AEE"/>
<path d="M185.718 29.5744V23.0705H188.95V19.0209H185.718V15.094H180.746V19.0209H178.757V23.0705H180.746V29.4517C180.746 33.624 183.108 35.0966 186.464 35.0966H189.075V30.9243H187.334C186.091 30.9243 185.718 30.5561 185.718 29.5744Z" fill="#6B2AEE"/>
<path d="M202.997 21.2298C202.127 19.7572 200.387 18.6528 197.9 18.6528C193.922 18.6528 190.69 21.8434 190.69 26.8747C190.69 32.0288 193.922 35.2194 197.9 35.2194C200.387 35.2194 202.003 34.1149 202.997 32.6423V34.9739H207.969V19.0209H202.997V21.2298ZM199.516 31.047C197.652 31.047 195.911 29.5744 195.911 26.9974C195.911 24.4204 197.652 23.0705 199.516 23.0705C201.381 23.0705 203.121 24.5431 203.121 27.1201C202.997 29.6972 201.381 31.047 199.516 31.047Z" fill="#6B2AEE"/>
<path d="M216.05 23.6841C216.05 22.9478 216.672 22.4569 217.915 22.4569C219.282 22.4569 220.152 23.1932 220.277 24.2976H224.876C224.503 21.107 222.266 18.7755 218.039 18.7755C213.813 18.7755 211.326 20.9843 211.326 23.8068C211.326 29.6971 220.277 27.8564 220.277 30.4334C220.277 31.1697 219.655 31.7833 218.288 31.7833C216.92 31.7833 215.926 31.047 215.801 29.9426H210.829C211.078 33.0104 213.937 35.4647 218.412 35.4647C222.514 35.4647 225 33.3786 225 30.5561C224.876 24.4204 216.05 26.2611 216.05 23.6841Z" fill="#6B2AEE"/>
<path d="M7.9558 14.7258L5.96685 14.1123L4.84807 13.8668L4.47514 12.7624L3.9779 10.799L3.48066 12.7624L3.10773 13.8668L1.98895 14.1123L0 14.7258L1.98895 15.2167L3.10773 15.5849L3.48066 16.6893L3.9779 18.6527L4.47514 16.6893L4.84807 15.5849L5.96685 15.2167L7.9558 14.7258Z" fill="#02E7D9"/>
<path d="M24.8617 1.96345L23.8672 1.71802L23.2457 1.5953L23.1214 0.981723L22.8727 0L22.6241 0.981723L22.3755 1.5953L21.8783 1.71802L20.8838 1.96345L21.8783 2.20888L22.3755 2.33159L22.6241 2.94517L22.8727 3.92689L23.1214 2.94517L23.2457 2.33159L23.8672 2.20888L24.8617 1.96345Z" fill="#02E7D9"/>
<path fill-rule="evenodd" clip-rule="evenodd" d="M5.84238 18.53C2.85896 26.0157 4.47498 34.8512 10.5661 40.8642C18.7706 48.9634 32.196 48.9634 40.4004 40.8642C48.6048 32.765 48.6048 19.5118 40.4004 11.4125C34.4335 5.27676 25.4833 3.68146 17.9004 6.62663C19.6407 6.13577 21.5054 5.76762 23.2457 5.76762C27.9695 5.76762 32.5689 7.48564 36.1739 11.0444C39.7788 14.6031 41.5192 19.1436 41.5192 23.8068C41.5192 28.47 39.7788 33.0104 36.1739 36.5692C32.5689 40.1279 27.9695 41.846 23.2457 41.846C18.5219 41.846 13.9225 40.1279 10.3175 36.5692C6.83686 33.1332 5.09653 28.47 5.09653 23.8068C5.09653 22.0888 5.34515 20.248 5.84238 18.53Z" fill="#6B2AEE"/>
<path fill-rule="evenodd" clip-rule="evenodd" d="M7.45898 30.5561C10.0695 36.4465 16.1606 40.6188 23.122 40.6188C32.5695 40.6188 40.2767 33.0104 40.2767 23.6841C40.2767 14.3577 32.5695 6.74933 23.122 6.74933C16.1606 6.74933 10.0695 10.9217 7.45898 16.9347C8.20484 15.5848 9.07501 14.4804 10.0695 13.376C12.8043 10.6762 16.4093 9.08092 20.5115 9.08092C24.6137 9.08092 28.343 10.6762 30.9535 13.376C33.6883 16.0757 35.3043 19.6344 35.3043 23.6841C35.3043 27.7337 33.6883 31.4151 30.9535 33.9921C28.2187 36.6919 24.6137 38.2872 20.5115 38.2872C16.4093 38.2872 12.68 36.6919 10.0695 33.9921C9.07501 33.0104 8.20484 31.7833 7.45898 30.5561Z" fill="#02E7D9"/>
<path fill-rule="evenodd" clip-rule="evenodd" d="M22.873 39.3916C26.2294 38.9008 29.4614 37.3055 31.9476 34.9739C34.9311 32.0287 36.6714 27.9791 36.6714 23.8068C36.6714 19.6345 35.0554 15.5848 31.9476 12.6397C29.4614 10.1854 26.3537 8.59007 22.873 8.22192C22.9974 8.22192 22.9974 8.22192 23.1217 8.22192C31.9476 8.22192 39.0333 15.2167 39.0333 23.9295C39.0333 28.1018 37.4172 32.0287 34.4338 34.9739C31.4504 37.9191 27.4725 39.5144 23.246 39.5144C22.9974 39.3916 22.9974 39.3916 22.873 39.3916Z" fill="url(#paint0_linear)"/>
<path d="M42.1411 8.83551C44.1321 8.83551 45.7461 7.24221 45.7461 5.27676C45.7461 3.31132 44.1321 1.71802 42.1411 1.71802C40.1501 1.71802 38.5361 3.31132 38.5361 5.27676C38.5361 7.24221 40.1501 8.83551 42.1411 8.83551Z" fill="#02E7D9"/>
<path d="M42.1406 2.69977C43.6323 2.69977 44.7511 3.80421 44.7511 5.27679" stroke="white" stroke-width="0.7" stroke-miterlimit="10"/>
<path d="M6.33973 47C9.36051 47 11.8093 44.5826 11.8093 41.6005C11.8093 38.6185 9.36051 36.201 6.33973 36.201C3.31895 36.201 0.870117 38.6185 0.870117 41.6005C0.870117 44.5826 3.31895 47 6.33973 47Z" fill="#02E7D9"/>
<path d="M5.59376 45.282C3.4805 44.9138 2.11309 42.8277 2.48602 40.7415" stroke="white" stroke-miterlimit="10"/>
<path d="M41.022 36.2011L38.6601 35.4648L37.2927 35.0966L36.9198 33.7468L36.174 31.4152L35.5524 33.7468L35.1795 35.0966L33.8121 35.4648L31.4502 36.2011L33.8121 36.8146L35.1795 37.1828L35.5524 38.5327L36.174 40.8642L36.9198 38.5327L37.2927 37.1828L38.6601 36.8146L41.022 36.2011Z" fill="white"/>
<path d="M34.6825 24.175H30.3317V33.1332L30.2074 33.2559C27.5969 35.8329 24.2405 37.1828 20.5112 37.1828C16.9063 37.1828 13.5499 35.8329 11.0637 33.3786V24.0522H6.71289L11.6853 20.0026V14.7259H15.9118V16.6893L20.6355 12.8851L27.5969 18.53L34.1853 23.9295L34.6825 24.175Z" fill="#02E7D9"/>
<path d="M20.0138 25.0339H17.4033V27.611H20.0138V25.0339Z" fill="white"/>
<path d="M23.9914 25.0339H21.3809V27.611H23.9914V25.0339Z" fill="white"/>
<path d="M20.0138 28.8381H17.4033V31.4152H20.0138V28.8381Z" fill="white"/>
<path d="M23.9914 28.8381H21.3809V31.4152H23.9914V28.8381Z" fill="white"/>
<path fill-rule="evenodd" clip-rule="evenodd" d="M25.6077 45.4047C20.3867 45.4047 15.4143 43.4412 11.685 39.7598C11.4364 39.5143 11.3121 39.3916 11.0635 39.1462C14.5441 41.8459 18.7707 43.3185 23.2458 43.3185C28.5911 43.3185 33.4392 41.2324 37.1685 37.5509C37.9143 36.8146 38.5359 36.0783 39.1574 35.2193C38.1629 38.1645 36.5469 40.7415 34.558 43.1958C31.8231 44.6684 28.7154 45.4047 25.6077 45.4047Z" fill="url(#paint1_linear)"/>
<path d="M16.5381 18.2442V14.6855H16.0408V18.2442H16.5381Z" fill="white"/>
<defs>
<linearGradient id="paint0_linear" x1="24.8102" y1="11.534" x2="30.4148" y2="29.134" gradientUnits="userSpaceOnUse">
<stop stop-color="white"/>
<stop offset="1" stop-color="white" stop-opacity="0"/>
</linearGradient>
<linearGradient id="paint1_linear" x1="3.14161" y1="36.2783" x2="29.5191" y2="40.1785" gradientUnits="userSpaceOnUse">
<stop stop-color="white"/>
<stop offset="1" stop-color="white" stop-opacity="0"/>
</linearGradient>
</defs>
</svg>
