<?xml version="1.0" standalone="no"?>
<!DOCTYPE svg PUBLIC "-//W3C//DTD SVG 1.1//EN" "http://www.w3.org/Graphics/SVG/1.1/DTD/svg11.dtd">
<svg xmlns="http://www.w3.org/2000/svg">
<metadata>Copyright (C) 2021 by original authors @ fontello.com</metadata>
<defs>
<font id="treinaweb-icons" horiz-adv-x="1000" >
<font-face font-family="treinaweb-icons" font-weight="400" font-stretch="normal" units-per-em="1000" ascent="850" descent="-150" />
<missing-glyph horiz-adv-x="1000" />
<glyph glyph-name="credit-card" unicode="&#xe800;" d="M974 525l-299 299c-34 35-90 35-124 0l-376-375h-87c-49 0-88-39-88-88v-423c0-49 39-88 88-88h673c49 0 88 39 88 88v337l125 126c35 34 35 90 0 124z m-382 258c6 6 14 8 21 8 8 0 15-2 21-8l154-154-180-180h-350l334 334z m198-845c0-16-13-29-29-29h-673c-16 0-29 13-29 29v423c0 16 13 29 29 29h673c16 0 29-13 29-29v-423z m-17 510c-4 1-8 1-12 1h-70l138 138 42-41-98-98z m160-6l-84-84v3c0 22-8 43-22 58l85 85 21-20c11-12 11-30 0-42z m-816-386h109v-59h-109v59z m169 0h109v-59h-109v59z m168 0h109v-59h-109v59z m169 0h109v-59h-109v59z m-308 246h-198v-176h198v176z m-59-118h-80v59h80v-59z" horiz-adv-x="1000" />

<glyph glyph-name="bars" unicode="&#xe801;" d="M1000 128h-1000v-111h1000v111z m0 278h-1000v-112h1000v112z m0 277h-1000v-111h1000v111z" horiz-adv-x="1000" />

<glyph glyph-name="broom-bucket" unicode="&#xe802;" d="M887 382v18c0 49-20 95-54 130-34 34-81 53-130 53-48 0-95-19-129-53-35-35-54-81-54-130v-67h-67c-4 0-8-1-11-4-4-4-5-8-5-12v-67c0-4 1-9 5-12 3-3 7-5 11-5h2l16-150h-68v717c0 13-5 26-14 35-10 10-22 15-36 15-13 0-26-5-35-15-9-9-15-22-15-35v-717h-166c-9 0-18-3-24-9-6-7-10-15-10-24v-48l-32-131c-1-3-1-5-1-8 1-2 2-5 4-7 1-2 3-3 5-4 3-1 5-2 8-2h783c4 0 9 2 12 5 3 3 5 7 5 12v65l23 224c8 4 15 11 20 19 4 8 7 17 7 26v120c0 14-5 28-14 39-10 12-22 19-36 22z m-334 18c0 20 4 39 12 57 7 19 18 35 32 49 14 14 31 25 49 33 18 7 38 11 57 11 20 0 40-4 58-11 18-8 34-19 48-33 14-14 25-30 33-49 7-18 11-37 11-57v-17h-154c-14 0-28-5-39-14-11-9-19-22-22-36h-85z m-83-100h167v-33h-167z m19-67h148v-32c0-7 1-14 4-20 2-6 6-12 11-17 5-4 10-8 16-10 6-3 13-4 19-4 12 0 24 5 33 13 9-8 21-13 33-13 13 0 25 5 34 13 9-8 21-13 33-13 12 0 24 5 33 13 7-6 15-10 23-12l-21-201h-239l-13 52v48c0 9-3 17-9 24-7 6-15 9-24 9h-66z m-152 567c0 4 1 9 5 12 3 3 7 5 11 5 5 0 9-2 12-5 3-3 5-8 5-12v-717h-33z m-200-750h433v-33h-433z m38-167l25 100h32l-25-100z m-42 100h32l-25-100h-32z m133 0h35l-12-100h-48z m56-100l13 100h37l12-100z m96 0l-12 100h34l25-100z m82 0l-25 100h32l25-100z m66 0l-25 100h33l25-100z m287 0h-220l-8 34h228z m50 367v-49c0-4-1-9-4-12-3-3-7-5-11-6-3 0-5 1-7 1-2 1-4 2-6 4-1 2-3 3-4 5-1 3-1 5-1 7v67h-33v-67c0-4-2-9-5-12-3-3-8-5-12-5-4 0-9 2-12 5-3 3-5 8-5 12v67h-33v-67c0-4-2-9-5-12-3-3-7-5-12-5-4 0-8 2-11 5-4 3-5 8-5 12v67h-34v-67c0-4-1-9-4-12-3-3-8-5-12-5h0c-5 0-9 2-12 5-1 2-3 4-4 6 0 2-1 5-1 7v120c0 8 3 15 9 20 5 6 12 9 20 9h175c8 0 15-3 21-9 5-5 8-12 8-20z m87 348c-13 5-25 12-35 22-10 9-17 21-21 34-1 4-4 7-6 9-3 2-7 3-10 3-4 0-7-1-10-3-3-2-5-5-6-9-4-13-12-25-21-34-10-10-22-17-35-22-3-1-6-3-8-6-2-3-3-6-3-10 0-3 1-6 3-9 2-3 5-5 8-6 13-5 25-12 35-22 9-10 17-21 21-35 1-3 3-6 6-8 3-2 6-3 10-3 3 0 7 1 10 3 2 2 5 5 6 8 4 14 11 25 21 35 10 10 22 17 35 22 3 1 6 3 8 6 2 3 3 6 3 9 0 4-1 7-3 10-2 3-5 5-8 6z m-72-46c-8 12-18 22-30 30 12 9 22 19 30 31 8-12 18-22 30-31-12-8-22-18-30-30z m-664-153c-13 4-24 11-34 21-10 10-17 22-22 35-1 3-3 6-6 8-3 2-6 3-9 3-4 0-7-1-10-3-3-2-5-5-6-8-5-13-12-25-22-35-9-10-21-17-34-21-4-1-7-4-9-6-2-3-3-7-3-10 0-4 1-7 3-10 2-3 5-5 9-6 13-4 25-12 34-21 10-10 17-22 22-35 1-3 3-6 6-8 3-2 6-3 10-3 3 0 6 1 9 3 3 2 5 5 6 8 5 13 12 25 22 35 10 9 21 17 34 21 4 1 7 3 9 6 2 3 3 6 3 10 0 3-1 7-3 10-2 2-5 5-9 6z m-71-46c-9 12-19 22-31 30 12 8 22 18 31 30 8-12 18-22 30-30-12-8-22-18-30-30z m-28-155c-13 4-25 12-34 21-10 10-17 22-22 35-1 3-3 6-6 8-3 2-6 3-10 3-3 0-7-1-9-3-3-2-5-5-6-8-5-13-12-25-22-35-10-9-21-17-35-21-3-1-6-3-8-6-2-3-3-6-3-10 0-3 1-7 3-10 2-2 5-5 8-6 14-4 25-11 35-21 10-10 17-22 22-35 1-3 3-6 6-8 2-2 6-3 9-3 4 0 7 1 10 3 3 2 5 5 6 8 5 13 12 25 22 35 9 10 21 17 34 21 4 1 7 4 9 6 2 3 3 7 3 10 0 4-1 7-3 10-2 3-5 5-9 6z m-72-46c-8 12-18 22-30 30 12 8 22 19 30 30 9-11 19-22 30-30-11-8-21-18-30-30z" horiz-adv-x="1001" />

<glyph glyph-name="calendar" unicode="&#xe803;" d="M883 772h-47v78h-78v-78h-516v78h-78v-78h-47c-64 0-117-53-117-117v-688c0-64 53-117 117-117h766c64 0 117 53 117 117v688c0 64-53 117-117 117z m39-805c0-21-18-39-39-39h-766c-21 0-39 18-39 39v516h844v-516z m0 594h-844v94c0 21 18 39 39 39h47v-78h78v78h516v-78h78v78h47c21 0 39-18 39-39v-94z m-695-160h-79v-78h79v78z m156 0h-78v-78h78v78z m156 0h-78v-78h78v78z m156 0h-78v-78h78v78z m157 0h-79v-78h79v78z m-625-156h-79v-79h79v79z m156 0h-78v-79h78v79z m156 0h-78v-79h78v79z m156 0h-78v-79h78v79z m-468-157h-79v-78h79v78z m156 0h-78v-78h78v78z m156 0h-78v-78h78v78z m156 0h-78v-78h78v78z m157 157h-79v-79h79v79z" horiz-adv-x="1000" />

<glyph glyph-name="camera" unicode="&#xe804;" d="M997 657h-164v17c0 75-61 136-136 136h-261c-75 0-136-61-136-136v-17h-164c-75 0-136-61-136-136v-495c0-75 61-136 136-136h861c75 0 136 61 136 136v495c0 75-61 136-136 136z m-430-626c-142 0-258 116-258 258 0 142 116 257 258 257 142 0 257-115 257-257 0-142-115-258-257-258z m136 258c0-75-61-137-136-137-75 0-137 62-137 137 0 75 62 136 137 136 75 0 136-61 136-136z" horiz-adv-x="1133" />

<glyph glyph-name="caret-down" unicode="&#xe805;" d="M611-150l-529 917 1058 0-529-917z" horiz-adv-x="1222" />

<glyph glyph-name="caret-left" unicode="&#xe806;" d="M0 350l866-500 0 1000z" horiz-adv-x="866" />

<glyph glyph-name="caret-right" unicode="&#xe807;" d="M866 350l-866-500 0 1000z" horiz-adv-x="866" />

<glyph glyph-name="caret-up" unicode="&#xe808;" d="M611 767l-529-917 1058 0z" horiz-adv-x="1222" />

<glyph glyph-name="certificate" unicode="&#xe809;" d="M996 281c13 20 27 43 27 69 0 26-14 49-27 69-9 13-17 26-19 37-3 12-1 28 1 44 3 24 6 49-5 72-11 23-34 37-54 49-14 9-27 17-34 26-8 10-13 24-18 39-8 22-16 48-36 64-20 15-47 18-70 21-16 1-31 3-42 8-11 5-22 16-33 28-16 16-35 36-60 41-25 6-49-3-71-11-16-5-31-11-43-11-13 0-28 6-43 11-23 8-47 17-71 11-26-5-44-25-61-41-11-12-22-23-32-28-11-5-27-7-43-8-23-3-49-6-69-21-20-16-29-42-36-64-6-15-11-29-18-39-8-9-21-17-34-26-20-12-43-26-54-49-11-23-8-48-5-72 2-16 3-32 1-44-3-11-11-24-20-37-12-20-27-43-27-69 0-26 15-49 27-69 9-13 17-26 20-37 2-12 1-27-1-44-3-24-6-49 5-72 11-23 34-37 54-49 13-9 26-16 34-26 7-9 12-24 18-39 7-22 16-48 36-64 20-15 46-18 69-21 16-1 32-3 43-8 10-5 21-16 32-28 17-16 35-36 61-41 24-6 48 3 71 11 15 5 30 11 43 11 12 0 27-6 43-11 17-7 36-13 54-13 6 0 11 0 17 2 25 5 44 25 60 41 11 12 22 23 33 28 11 5 26 7 42 8 23 3 50 6 70 21 20 16 28 42 36 64 5 15 10 30 18 39 7 10 20 17 34 26 20 12 43 26 54 49 11 23 8 48 5 72-2 17-4 32-1 44 2 11 10 24 19 37z m-34 22c-10-16-20-32-24-50-5-19-2-39 0-57 2-20 5-38-1-50-6-13-22-23-39-33-16-10-33-20-45-35-12-15-18-33-24-51-6-19-12-37-23-45-11-9-29-11-49-13-19-2-38-4-56-12-17-8-30-22-43-36-14-14-27-27-41-30-13-3-31 3-49 9-18 7-37 14-56 14-20 0-39-7-57-14-18-6-35-12-48-9-14 3-27 16-41 30-13 14-27 28-44 36-17 8-37 10-56 12-19 2-38 4-48 13-11 8-17 26-24 45-6 18-12 36-24 51-12 15-28 25-45 35-16 10-32 20-38 33-6 12-4 30-2 50 3 18 5 38 1 57-5 18-15 34-25 50-11 17-21 33-21 47 0 15 10 30 21 47 10 16 20 32 25 50 4 19 2 39-1 58-2 19-4 37 2 49 6 13 22 23 38 33 17 10 33 20 45 35 12 15 18 34 24 51 7 19 13 37 24 45 10 9 29 11 48 13 19 2 39 4 56 12 17 8 31 22 44 36 14 14 27 27 41 30 13 3 30-3 48-9 18-7 37-14 57-14 19 0 38 7 56 14 18 6 36 12 49 9 14-3 27-16 41-30 13-14 26-28 43-36 18-8 37-10 56-12 20-2 38-4 49-13 11-8 17-26 23-45 6-17 12-36 24-51 12-15 29-25 45-35 17-10 33-20 39-33 6-12 3-30 1-49-2-19-5-39 0-58 4-18 14-34 24-50 11-17 21-32 21-47 0-14-10-30-21-47z m-450 443c-218 0-396-178-396-396 0-218 178-396 396-396 218 0 395 178 395 396 0 218-177 396-395 396z m0-752c-196 0-356 160-356 356 0 196 160 356 356 356 196 0 355-160 355-356 0-196-159-356-355-356z m217 537c-18 15-40 22-64 20-23-2-44-13-59-31l-130-154-63 65c-33 35-88 36-123 3-17-17-26-38-27-61 0-24 9-46 25-63l130-135c16-17 39-26 62-26 1 0 2 0 3 0 25 1 48 12 64 31l192 228c15 18 23 41 21 64-2 23-13 44-31 59z m-20-97l-193-229c-8-10-21-16-34-16-13-1-26 5-36 14l-129 135c-9 9-14 21-14 34 1 12 6 24 15 33 9 9 21 13 32 13 13 0 25-5 34-14l79-82c4-4 9-6 15-6 5 0 11 3 14 7l145 172c8 9 19 15 32 16 12 1 25-2 34-11 10-8 16-19 17-32 1-12-3-24-11-34z" horiz-adv-x="1023" />

<glyph glyph-name="check-circle" unicode="&#xe80a;" d="M721 509c15-16 15-40 0-56l-262-262c-15-15-40-15-55 0l-125 125c-15 15-15 40 0 55 15 16 40 16 55 0l97-97 235 235c15 15 40 15 55 0z m279-159c0-276-224-500-500-500-276 0-500 224-500 500 0 276 224 500 500 500 276 0 500-224 500-500z m-78 0c0 233-189 422-422 422-233 0-422-189-422-422 0-233 189-422 422-422 233 0 422 189 422 422z" horiz-adv-x="1000" />

<glyph glyph-name="cleaning-1" unicode="&#xe80b;" d="M996 540c-7 27-25 50-49 64l-124 72c-10 6-22 2-27-7-5-9-2-21 7-27l124-71c16-9 27-24 32-41 4-17 2-36-7-51l-99-171v139c0 35-27 63-62 63-8 0-16-2-23-5v53c0 34-28 62-62 62-8 0-16-2-24-5-5 30-30 52-61 52-30 0-56-22-61-52-7 3-16 5-24 5-34 0-62-28-62-62l0-236-22 34c-17 26-50 38-80 28-36-11-56-49-45-85l1-6c9-30 20-58 35-86l-135 78c-32 19-43 60-24 92l231 400c9 16 23 27 41 32 17 4 35 2 51-7l124-72c9-5 21-2 27 7 5 10 2 22-8 27l-124 72c-24 14-53 18-80 10-28-7-51-25-65-49l-12-21c-48 13-97 21-147 22 0 0 0 0 0 0-11 0-20-9-20-19 0-11 8-20 19-20 43-1 86-7 128-18l-130-224c-28 9-57 14-87 15-11 0-20-8-20-19 0-11 9-20 19-20 24-1 46-4 68-11l-49-86c-29-50-12-116 39-145l202-116c23-29 50-55 80-78v-188c0-10 9-19 19-19 11 0 20 9 20 19v198c0 6-3 12-8 16-75 54-131 132-156 221l-2 6c-4 16 4 32 20 37 13 4 28-1 35-12l58-90c5-8 14-11 22-9 8 3 14 10 14 19v81c0 0 0 0 0 0v222c0 13 10 23 23 23 13 0 23-10 23-23v-183c0-11 9-20 20-20 10 0 19 9 19 20v230c0 12 10 23 23 23 13 0 23-11 23-23v-230c0-11 9-20 20-20 10 0 19 9 19 20v183c0 13 11 23 23 23 13 0 23-10 23-23v-183c0-11 9-20 20-20 11 0 19 9 19 20v72c0 13 11 23 23 23 13 0 23-10 23-23v-160c0-76-31-151-85-206-4-3-6-8-6-13v-199c0-10 9-19 20-19 10 0 19 9 19 19v191c43 44 71 98 84 157l140 242c14 25 18 54 10 81z m-976 177c2 0 5 0 7 2 39 16 81 27 123 34 10 1 18 11 16 22-1 11-11 18-22 16-45-7-90-19-132-36-10-5-15-16-10-26 3-7 10-12 18-12z m0-127c2 0 5 0 7 1 61 25 128 34 194 26 10-1 20 6 21 17 2 11-6 21-17 22-72 9-146-1-213-29-10-4-15-15-10-25 3-8 10-12 18-12z m29-76c-14-4-27-10-39-17-9-5-13-17-8-27 4-6 11-10 18-10 3 0 6 1 9 3 11 6 22 11 33 15 10 4 15 15 12 25-4 10-15 15-25 11z m688 170c5 0 10 2 14 5 3 4 5 9 5 14 0 5-2 10-5 14-4 4-9 6-14 6-5 0-10-2-14-6-4-4-6-9-6-14 0-5 2-10 6-14 4-3 9-5 14-5z" horiz-adv-x="1000" />

<glyph glyph-name="cleaning-2" unicode="&#xe80c;" d="M867 150h-26c-19 0-37-4-53-12-24-12-52-12-76 0-9 4-19 8-30 10l33 252h35c9 0 17 8 17 17v66c0 10-8 17-17 17h-67v50c0 4-1 9-4 12l-79 78v52l25 20 43-86 30 15-46 93 21 16h60c10 0 17 8 17 17v66c0 10-7 17-17 17h-166c-83 0-150-67-150-150 0-9 7-17 16-17h34v-43l-45-45c-4-3-5-7-5-12v-83h-34v133c0 2 0 4-1 6 0 1 0 2-1 2 0 1-1 2-1 3l-63 79v110c0 10-8 17-17 17h-100c-9 0-17-7-17-17v-110l-63-79c0-1-1-2-1-3 0 0-1-1-1-2-1-2-1-4-1-6v-133h-67c-9 0-17-7-17-17v-66c0-9 8-17 17-17h35l65-502c1-8 8-15 17-15h392c19-21 46-33 74-33h26c19 0 37 4 53 12 24 12 52 12 76 0 16-8 34-12 53-12h26c55 0 100 45 100 100v100c0 55-45 100-100 100z m-184 667h34v-34h-34v34z m50-350v-34h-233v34h233z m-282 250c9 57 58 100 116 100h83v-42l-72-58h-127z m116-34v-33h-67v33h67z m-117-107l40 41h86l74-74v-43h-200v76z m-17-109h34v-117c0-6 3-12 9-15l100-50c5-2 9-7 10-12 2-5 1-11-1-16-5-10-17-14-27-9 0 0 0 0 0 0l-67 34c-9 4-19 0-23-8-1-2-1-5-1-7v-167c0-18-15-33-34-33v150h-33v-150h-33v150h-34v-150h-33v150h-33v-150c-19 0-34 15-34 33v367h200z m-216 350h66v-84h-66v84z m-9-117h84l40-50h-164l40 50z m-58-83h200v-117h-200v117z m-83-184v34h133v-34h-133z m466-383v-100c0-11 2-23 6-33h-358l-62 483h81v-300c0-37 30-67 67-67h166c37 0 67 30 67 67v140l44-22c26-13 58-2 71 24 0 0 0 0 0 0 6 13 7 28 3 42-5 13-14 25-27 31l-91 45v40h181l-32-250h-16c-55 0-100-45-100-100z m400-100c0-37-29-67-66-67h-26c-14 0-26 3-38 9-33 17-72 17-106 0-11-6-24-9-38-9h-26c-36 0-66 30-66 67v26c18-17 42-26 66-26h26c19 0 37 4 53 12 24 12 52 12 76 0 16-8 34-12 53-12h26c24 0 48 9 66 26v-26z m-66 33h-26c-14 0-26 3-38 9-33 17-72 17-106 0-11-6-24-9-38-9h-26c-36 0-66 30-66 67 0 37 30 67 66 67h26c14 0 27-3 38-9 34-17 73-17 106 0 12 6 24 9 38 9h26c37 0 66-30 66-67 0-37-29-67-66-67z" horiz-adv-x="913" />

<glyph glyph-name="cleaning-3" unicode="&#xe80d;" d="M17-152h800c9 0 16 7 16 17v150h117c9 0 17 7 17 16v167c0 9-8 17-17 17h-117v150c0 9-7 16-16 16h-31c2 11 0 23-7 32l-75 100 35 26c15 12 24 30 23 50l-2 30c0 8 3 15 10 20l35 26 14-19c3-4 7-6 11-7 1 0 2 0 3 0 3 0 7 1 10 4l137 103c22 16 27 48 10 70l-9 12c-17 22-48 27-70 10l-138-103c-7-6-9-16-3-23l15-20-35-26c-16-12-24-30-23-49l1-30c1-8-3-16-9-21l-35-26-75 100c-8 11-21 17-34 16-13-1-24-9-30-20l-137-255h-391c-9 0-17-7-17-16v-167c0-9 8-17 17-17h116v-133h-116c-9 0-17-7-17-17v-166c0-10 8-17 17-17z m914 963c7 6 18 4 23-3l9-12c6-8 4-18-3-24l-124-93-29 39 124 93z m-631-796h233v-134h-233v134z m133 166h234v-133h-234v133z m367-300h-233v134h233v-134z m133 167h-233v133h233v-133z m-133 167h-233v97l170 36h63v-133z m-226 405c1 2 2 2 3 2l1 0c1 0 3 0 4-2l75-100-68-52c-8-5-9-16-4-23 6-8 16-9 24-4l68 52 76-100c1-2 1-4 1-6-1-1-2-2-3-2l-331-70c-2-1-4 0-5 2-1 2-2 4-1 6l160 297z m-186-323c9-12 24-18 39-15l106 23v-90h-233v133h90l-5-9c-7-14-6-30 3-42z m-355-16h34c9 0 16 8 16 17 0 9-7 17-16 17h-34v33h234v-133h-234v66z m134-100h233v-133h-233v133z m-134-166h234v-134h-234v134z m184 283c0 9-8 17-17 17h-67c-9 0-16-8-16-17 0-9 7-17 16-17h67c9 0 17 8 17 17z" horiz-adv-x="1000" />

<glyph glyph-name="facebook-f" unicode="&#xe80e;" d="M424-148h-169c-29 0-52 22-52 48v362h-99c-28 0-51 21-51 48v155c0 27 23 49 51 49h99v77c0 77 26 142 74 189 49 47 117 72 197 72l129 0c29 0 52-22 52-49v-143c0-27-23-49-52-49l-87 0c-27 0-33-5-35-7-2-2-5-9-5-29v-61h121c9 0 18-3 25-7 16-8 27-24 27-42l0-155c0-27-24-48-52-48h-121v-362c0-26-23-48-52-48z m-159 59h149v377c0 18 15 32 34 32h138l0 135h-138c-19 0-34 14-34 32v88c0 23 2 49 21 68 22 24 57 27 81 27l76 0v123l-118 0c-129 0-209-77-209-202v-104c0-18-15-32-34-32h-116v-135h116c19 0 34-14 34-32v-377z m338 882h0 0z" horiz-adv-x="706" />

<glyph glyph-name="frame-broken" unicode="&#xe80f;" d="M977 623c13 0 23 10 23 23v113c0 50-41 91-91 91h-113c-13 0-23-10-23-23 0-12-10-22-23-22-12 0-23 10-23 22 0 13-10 23-22 23h-614c-50 0-91-41-91-91v-113c0-13 10-23 23-23 12 0 23-10 23-23 0-12-11-23-23-23-13 0-23-10-23-22v-614c0-50 41-91 91-91h818c50 0 91 41 91 91v614c0 12-10 22-23 22-12 0-22 11-22 23 0 13 10 23 22 23z m-22 41c-27-9-46-34-46-64 0-30 19-55 46-64v-595c0-25-21-46-46-46h-818c-25 0-45 21-45 46v595c26 9 45 34 45 64 0 30-19 55-45 64v95c0 25 20 46 45 46h595c9-27 34-46 64-46 30 0 55 19 64 46h95c25 0 46-21 46-46z m-234 43c-5 4-10 7-16 7h-546c-12 0-23-10-23-23v-682c0-13 11-23 23-23h682c13 0 23 10 23 23v546c0 6-3 11-7 16z m97-675h-493l74 49c10 7 13 21 6 32l-78 117 106 71 80-39c3-2 6-3 10-3 8 0 16 5 20 13 6 11 1 25-10 30l-83 41-36 109 73 37c12 5 16 19 11 30-6 12-20 16-31 10l-91-45c-10-5-15-17-11-27l40-120-122-82c-11-7-13-21-6-31l78-118-112-74h-61v636h513l123-123z" horiz-adv-x="1000" />

<glyph glyph-name="instagram" unicode="&#xe810;" d="M999 556c-2 53-11 90-23 121-13 34-32 64-58 89-25 25-55 45-88 58-32 12-69 21-122 23-53 2-70 3-206 3-136 0-153-1-206-3-53-2-90-11-122-23-33-13-63-32-88-58-26-25-45-55-58-88-12-32-21-69-23-122-3-53-3-70-3-206 0-136 0-153 3-206 2-53 11-90 23-121 13-34 32-64 58-89 25-26 55-45 88-58 32-12 68-21 122-23 53-2 70-3 206-3 135 0 152 1 206 3 53 2 89 11 121 23 67 26 120 79 146 147 13 31 21 68 24 121 2 53 3 70 3 206 0 136-1 153-3 206z m-90-408c-2-49-10-75-17-93-17-44-52-78-95-95-18-7-44-15-93-17-53-3-68-3-202-3-133 0-149 0-202 3-49 2-75 10-93 17-21 8-41 21-57 37-17 17-29 36-37 58-7 17-15 44-18 93-2 52-3 68-3 202 0 133 1 149 3 202 3 48 11 75 18 92 8 22 20 42 37 58 16 16 36 29 58 37 17 7 44 15 92 17 53 3 69 3 202 3 134 0 150 0 202-3 49-2 75-10 93-17 22-8 41-21 58-37 16-16 29-36 37-58 7-17 15-44 17-92 2-53 3-69 3-202 0-134-1-149-3-202z m-407 459c-142 0-257-115-257-257 0-142 115-257 257-257 142 0 257 115 257 257 0 142-115 257-257 257z m0-424c-92 0-167 75-167 167 0 92 75 167 167 167 92 0 167-75 167-167 0-92-75-167-167-167z m327 434c0-33-27-60-60-60-33 0-60 27-60 60 0 33 27 60 60 60 33 0 60-27 60-60z" horiz-adv-x="1000" />

<glyph glyph-name="lock" unicode="&#xe811;" d="M854 475h-62v83c0 161-131 292-292 292-161 0-292-131-292-292v-83h-62c-12 0-21-9-21-21v-521c0-46 37-83 83-83h584c46 0 83 37 83 83v521c0 12-9 21-21 21z m-292-435c1-6-1-12-5-16-4-5-9-7-15-7h-84c-6 0-11 2-15 7-4 4-6 10-5 16l13 118c-22 16-34 40-34 67 0 46 37 83 83 83 46 0 83-37 83-83 0-27-12-51-34-67l13-118z m105 435h-334v83c0 92 75 167 167 167 92 0 167-75 167-167v-83z" horiz-adv-x="1000" />

<glyph glyph-name="minus" unicode="&#xe812;" d="M0 250l0 200 1000 0 0-200z" horiz-adv-x="1000" />

<glyph glyph-name="payment" unicode="&#xe813;" d="M1003 783h-117c-11 0-20-9-20-19v-18h-55c-11 0-20-8-20-19v-6c-32 3-42 9-72 26-22 13-57 33-118 60-1 1-1 1-1 1-20 8-73 23-129-2l-79-29-67 67c-8 8-20 8-28 0l-220-219c-7-8-8-20 0-28l376-376c6-6 20-7 28 0l200 201c5-1 11-1 16-1 52 0 97 36 123 74h183c11 0 20 9 20 20v249c0 10-9 19-20 19z m-692 19l45-45c-14-8-29-12-45-12-16 0-32 4-45 12z m-147-236l-45 45 45 45c8-14 13-29 13-45 0-16-5-32-13-45z m303-303l-45 45c27 17 62 17 90 0z m73 74c-44 31-103 31-147 0l-201 200c16 21 24 47 24 74 0 26-8 52-24 73l45 45c22-15 47-24 74-24 27 0 52 9 73 24l43-43c-9-1-18-4-27-9-14-8-25-19-32-34-22-4-43-15-59-31-44-44-44-115 0-159 22-22 51-33 80-33 28 0 57 11 79 33 14 15 24 32 29 51l67-22c-7-35 0-72 21-100z m-120 193c0 0 0 0 1 0l39-13c-3-14-10-26-20-36-28-28-74-28-103 0-28 29-28 75 0 103 7 7 15 13 24 16 4-30 25-57 59-70z m193-120c-7 12-12 27-12 41 9-7 21-13 35-19z m178 113c-18-31-55-62-94-62-7 0-14 0-20 1 0 0 0 0 0 0-43 6-66 31-73 40-1 1-3 3-3 3-2 4-6 8-11 9l-157 54c-25 9-38 30-32 52 0 0 0 0 0 0 0 0 0 0 0 0 3 10 10 18 19 23 8 5 19 6 29 3l176-56c11-3 22 3 25 13 3 11-2 22-13 25l-140 44-2 2c0 0 0 0 0 0l-72 73 62 22c0 0 1 0 1 0 0 0 0 0 0 0 0 0 1 0 1 1 42 19 82 7 98 1 60-27 91-45 115-58 32-19 47-28 91-31z m75 12h-35v172h35z m117 0h-77v209h77z m-76-454c0 0 0 0 0 0-18 43-61 59-111 41l-137-38c-8 24-28 45-56 55 0 0 0 0-1 1l-151 51c-12 16-52 58-125 58-52 0-98-36-124-74h-182c-11 0-20-9-20-20v-249c0-11 9-20 20-20h117c11 0 20 9 20 20v17h55c11 0 20 9 20 20v6c32-3 42-9 72-26 22-13 56-33 118-61 0 0 1 0 1 0 12-5 35-12 63-12 20 0 43 3 66 14l304 109c0 0 1 0 1 0 29 14 72 51 50 108z m-790-155h-77v209h77z m75 37h-35v172h35z m649 47l-303-109c-1 0-1 0-1-1 0 0-1 0-1 0-42-19-82-8-98-2-60 27-91 46-115 59-32 19-48 28-91 31v159c18 31 54 62 94 62 67 0 95-43 96-45 3-4 6-7 11-9l156-53c25-9 39-31 33-52-3-10-10-18-19-23-9-5-19-6-29-3l-176 56c-11 3-22-3-25-13-3-11 2-22 13-25l177-56c0 0 0 0 0 0 7-2 15-3 22-3 13 0 26 3 38 9 18 11 31 27 37 47 0 2 0 3 1 5l148 41c21 7 49 10 62-19 13-34-21-52-30-56z" horiz-adv-x="1023" />

<glyph glyph-name="plus" unicode="&#xe814;" d="M0 250l0 200 1000 0 0-200z m600-400h-200v1000h200z" horiz-adv-x="1000" />

<glyph glyph-name="search" unicode="&#xe815;" d="M964-12l-184 184c-14 13-31 21-49 23 55 69 89 156 89 251 0 223-182 404-404 404-223 0-404-181-404-404 0-222 181-403 404-403 84 0 162 26 227 70 0-20 8-40 23-55l184-184c16-16 36-24 57-24 21 0 41 8 57 24 32 31 32 82 0 114z m-548 189c-148 0-269 121-269 269 0 149 121 270 269 270 148 0 269-121 269-270 0-148-121-269-269-269z" horiz-adv-x="1000" />

<glyph glyph-name="search-2" unicode="&#xe816;" d="M725 264c-4 3-9 5-14 5-1 0-8 1-14-5l-14-14-45 45c99 139 84 330-38 452-137 137-360 137-497 0-137-137-137-360 0-497 122-122 313-137 452-38l45-45-14-14c-7-7-7-20 0-27l247-247c38-39 100-39 138 0 39 38 39 100 0 138z m-97-69l-42 41c5 5 10 9 14 14 5 4 9 9 14 14l41-42z m-497 82c-122 123-122 320 0 442 122 123 319 123 442 0 121-121 122-319 0-442-124-123-322-120-442 0z m580-55l55-55-83-83-55 55z m233-316c-23-23-60-23-83 0l-150 151 83 82 150-150c23-23 23-60 0-83z m-770 625c-11 0-19-9-19-20 0-11 8-19 19-19 11 0 20 8 20 19 0 11-9 20-20 20z m184 177c-52 0-101-20-138-57-21-22-37-47-46-75-4-11 2-22 12-25 10-4 21 2 25 12 7 23 20 43 37 60 29 30 69 46 110 46 11 0 20 9 20 19 0 11-9 20-20 20z m184-15c-107 107-280 107-387 0-107-107-107-280 0-387 107-107 280-107 387 0 106 107 106 280 0 387z m-28-359c-92-92-240-92-331 0-92 91-92 240 0 331 91 92 239 92 331 0 91-91 91-240 0-331z" horiz-adv-x="1000" />

<glyph glyph-name="sort" unicode="&#xe817;" d="M234 850l-234-405 468 0z m0-1000l-234 405 468 0z" horiz-adv-x="467" />

<glyph glyph-name="star" unicode="&#xe818;" d="M576 850l123-379h399l-323-235 124-380-323 235-323-235 123 380-323 235h399l124 379z" horiz-adv-x="1125" />

<glyph glyph-name="times" unicode="&#xe819;" d="M592 350l389 389c25 26 25 67 0 92-25 25-66 25-92 0l-389-389-389 389c-26 25-67 25-92 0-25-25-25-66 0-92l389-389-389-389c-25-26-25-67 0-92 13-13 29-19 46-19 16 0 33 6 46 19l389 389 389-389c13-13 30-19 46-19 17 0 33 6 46 19 25 25 25 66 0 92l-389 389z" horiz-adv-x="1000" />

<glyph glyph-name="upload" unicode="&#xe81a;" d="M324 85h353v353h235l-412 412-412-412h236v-353z m588-117h-824v-118h824v118z" horiz-adv-x="1000" />

<glyph glyph-name="woman" unicode="&#xe81b;" d="M671 134c-13 66-73 77-73 77v0c-1 0 5-1-147 37v6h112c23 0 42 19 42 43v220c2 8 2 17 0 25v80c0 8-6 15-14 15-8 0-14-7-14-15v-42c-8 5-16 8-26 10-3 15-15 27-31 29-16 2-28 12-36 29-4 8-12 13-20 14-9 1-17-3-22-10-24-34-92-111-210-111-8 0-15 0-17 0-21 2-39-16-39-38v-34c0-54 21-106 59-143 13-12 26-23 41-31v-12h-111c-8 0-14 6-14 14v329c0 107 85 195 187 195 0 0 0 0 1 0 36 0 78-11 107-28 18-10 29-2 47-2 44 0 79-46 84-88 0-1 0-3 0-13 0-14 15-15 14-14 8 0 14 6 14 15 0 2 0 12 0 15-6 58-54 115-112 115-22 0-26-6-33-2-33 19-80 31-121 31-118 1-216-100-216-224v-329c0-24 19-43 42-43h111v-6l-146-37c0 0 0 0 0 0l-11-3c0 0-1 0-1-1-19-7-52-26-61-73-44-224-42-215-42-216-5-38 13-68 58-68h153c8 0 14 7 14 15 0 8-6 14-14 14h-53v139c0 8-7 14-14 14-8 0-15-6-15-14v-139h-71c-19 0-30 7-30 27 0 10-1 0 41 222 7 33 30 46 43 52l10 3 84 21c93-113 88-107 93-112 31-32 76-30 105 6l88 106 83-21c2-1 44-9 53-55 42-220 42-212 42-222 0-20-11-27-30-27h-71v139c0 8-7 14-15 14-8 0-14-6-14-14v-139h-262c-8 0-15-6-15-14 0-8 7-15 15-15h362c35 0 58 20 58 56 0 16-1 8-42 228z m-119 425c12-3 21-11 25-21v-17c-4-10-13-18-25-22v60z m0-92v2c9 2 17 5 25 10v-182c0-8-6-14-14-14h-112v11c61 33 101 98 101 173z m-297-120c-33 32-51 76-51 122 1 32-2 36 3 41 2 1 4 2 7 2 102-6 189 40 247 117 16-28 38-37 55-39 5-1 8-4 8-9 0-40 0-74 0-114 0-146-169-218-269-120z m142-230c-20-24-47-24-67 0l-30 36h127l-30-36z m54 65h-175l-24 30 42 11c6 1 10 7 10 14l0 45c40-13 81-13 119 0 0-47-1-46 1-50 1-4 5-8 10-9l42-11-25-30z" horiz-adv-x="727" />

<glyph glyph-name="youtube" unicode="&#xe81c;" d="M864 344c-10 45-45 78-87 83-99 11-200 11-301 11-100 0-201 0-301-11-42-5-77-38-87-83-14-64-14-134-14-200 0-66 0-135 14-199 10-45 45-78 87-83 100-12 201-12 301-12 101 0 202 0 301 12 42 5 77 38 87 83 14 64 14 133 14 199 0 66 0 136-14 200z m-560-50h-59v-325h-54v325h-57v53h170v-53z m146-325h-48v31c-20-23-38-34-56-34-15 0-26 6-31 21-3 8-4 22-4 41v223h48v-207c0-12 0-18 1-20 1-8 5-12 11-12 10 0 20 8 31 24v215h48l0-282z m185 85c0-26-2-45-5-57-6-21-19-31-39-31-17 0-34 10-50 31v-28h-49v378h49v-123c16 20 32 31 50 31 20 0 33-11 39-32 3-12 5-30 5-57v-112z m183 47h-97v-50c0-26 8-39 25-39 12 0 19 7 22 21 0 2 1 14 1 34h49v-7c0-17 0-28-1-33-1-12-5-22-11-31-14-20-33-30-59-30-25 0-45 9-59 28-10 15-15 37-15 67v98c0 30 4 52 15 67 14 19 33 29 58 29 24 0 44-10 57-29 10-15 15-37 15-67v-58h0z m-72 108c-17 0-25-13-25-39v-26h49v26c0 26-8 39-24 39z m-181 0c-8 0-16-4-24-13v-171c8-9 16-13 24-13 14 0 21 13 21 38v120c0 26-7 39-21 39z m27 255c18 0 37 12 56 35v-31h50v285h-50v-218c-10-16-21-24-31-24-6 0-10 4-11 12-1 2-1 8-1 20v210h-49v-225c0-20 2-34 5-42 5-15 16-22 31-22z m-341 159v-155h54v155l65 227h-55l-37-150-38 150h-58c12-35 24-71 35-106 18-54 29-94 34-121z m192-159c25 0 44 10 58 29 10 15 15 37 15 67v100c0 30-5 53-15 67-14 20-33 29-58 29-24 0-43-9-57-29-10-14-15-37-15-67v-100c0-30 5-52 15-67 14-19 33-29 57-29z m-23 206c0 27 8 40 23 40 16 0 24-13 24-40v-119c0-27-8-40-24-40-15 0-23 13-23 40v119z" horiz-adv-x="952" />
</font>
</defs>
</svg>
